<svg xmlns="http://www.w3.org/2000/svg" width="18" height="14" viewBox="0 0 18 14" fill="none">
  <path fill-rule="evenodd" clip-rule="evenodd"
    d="M5.7307 2.15777C6.17639 2.08332 6.54545 1.72415 6.54545 1.27228C6.54545 0.820414 6.17731 0.448737 5.7289 0.50454C2.49931 0.906444 0 3.66113 0 6.99956C0 10.338 2.49931 13.0927 5.7289 13.4946C6.17731 13.5504 6.54545 13.1787 6.54545 12.7268C6.54545 12.275 6.17639 11.9158 5.7307 11.8413C3.40725 11.4532 1.63636 9.4332 1.63636 6.99956C1.63636 4.56591 3.40725 2.54587 5.7307 2.15777ZM6.54545 6.99956C6.54545 4.28834 8.74333 2.09047 11.4545 2.09047C14.1658 2.09047 16.3636 4.28834 16.3636 6.99956C16.3636 9.71077 14.1658 11.9086 11.4545 11.9086C8.74333 11.9086 6.54545 9.71077 6.54545 6.99956ZM11.4545 0.454102C7.83959 0.454102 4.90909 3.3846 4.90909 6.99956C4.90909 10.6145 7.83959 13.545 11.4545 13.545C15.0695 13.545 18 10.6145 18 6.99956C18 3.3846 15.0695 0.454102 11.4545 0.454102ZM12.2727 3.72683C12.2727 3.27496 11.9064 2.90865 11.4545 2.90865C11.0027 2.90865 10.6364 3.27496 10.6364 3.72683V6.18137H8.18182C7.72995 6.18137 7.36364 6.54769 7.36364 6.99956C7.36364 7.45143 7.72995 7.81774 8.18182 7.81774H10.6364V10.2723C10.6364 10.7242 11.0027 11.0905 11.4545 11.0905C11.9064 11.0905 12.2727 10.7242 12.2727 10.2723V7.81774H14.7273C15.1791 7.81774 15.5455 7.45143 15.5455 6.99956C15.5455 6.54769 15.1791 6.18137 14.7273 6.18137H12.2727V3.72683Z"
    fill="#FF6600" />
</svg>