<svg width="24" height="24" viewBox="9 10 24 24" fill="none" xmlns="http://www.w3.org/2000/svg">
  <g clip-path="url(#clip0_1088_61957)">
    <path d="M10.5 21.7354V30.7354C10.5 31.5634 11.1735 32.2354 12 32.2354H19.5V21.7354H10.5Z"
      fill="url(#paint0_linear_1088_61957)" />
    <path
      d="M31.5 15.7358H26.754C27.0945 15.5033 27.387 15.2723 27.591 15.0653C28.8015 13.8488 28.8015 11.8688 27.591 10.6523C26.415 9.46727 24.366 9.47027 23.1915 10.6523C22.5405 11.3048 20.8155 13.9613 21.054 15.7358H20.946C21.183 13.9613 19.458 11.3048 18.8085 10.6523C17.6325 9.47027 15.5835 9.47027 14.409 10.6523C13.2 11.8688 13.2 13.8488 14.4075 15.0653C14.613 15.2723 14.9055 15.5033 15.246 15.7358H10.5C9.6735 15.7358 9 16.4093 9 17.2358V19.4858C9 19.8998 9.336 20.2358 9.75 20.2358H19.5V17.2358H22.5V20.2358H32.25C32.664 20.2358 33 19.8998 33 19.4858V17.2358C33 16.4093 32.328 15.7358 31.5 15.7358ZM19.4115 15.6863C19.4115 15.6863 19.3485 15.7358 19.134 15.7358C18.0975 15.7358 16.119 14.6588 15.4725 14.0078C14.844 13.3748 14.844 12.3428 15.4725 11.7098C15.777 11.4038 16.1805 11.2358 16.6095 11.2358C17.037 11.2358 17.4405 11.4038 17.745 11.7098C18.756 12.7268 19.761 15.3248 19.4115 15.6863ZM22.8645 15.7358C22.6515 15.7358 22.5885 15.6878 22.5885 15.6863C22.239 15.3248 23.244 12.7268 24.255 11.7098C24.8595 11.0993 25.917 11.0963 26.5275 11.7098C27.1575 12.3428 27.1575 13.3748 26.5275 14.0078C25.881 14.6588 23.9025 15.7358 22.8645 15.7358Z"
      fill="url(#paint1_linear_1088_61957)" />
    <path d="M22.5 21.7354V32.2354H30C30.828 32.2354 31.5 31.5634 31.5 30.7354V21.7354H22.5Z"
      fill="url(#paint2_linear_1088_61957)" />
  </g>
  <defs>
    <linearGradient id="paint0_linear_1088_61957" x1="11.445" y1="22.5022" x2="20.4958" y2="29.7585"
      gradientUnits="userSpaceOnUse">
      <stop stop-color="#9747FF" />
      <stop offset="1" stop-color="#50ADCA" />
    </linearGradient>
    <linearGradient id="paint1_linear_1088_61957" x1="11.52" y1="10.5294" x2="18.6052" y2="25.7188"
      gradientUnits="userSpaceOnUse">
      <stop stop-color="#9747FF" />
      <stop offset="1" stop-color="#50ADCA" />
    </linearGradient>
    <linearGradient id="paint2_linear_1088_61957" x1="23.445" y1="22.5022" x2="32.4958" y2="29.7585"
      gradientUnits="userSpaceOnUse">
      <stop stop-color="#9747FF" />
      <stop offset="1" stop-color="#50ADCA" />
    </linearGradient>
    <clipPath id="clip0_1088_61957">
      <rect width="24" height="24" fill="white" transform="translate(9 9)" />
    </clipPath>
  </defs>
</svg>